#!OML:ASF E:\pregnant2\Project 1\Capture day 1\Session 1\pregnant2.ASF
:FULLY-SPECIFIED
:DEGREES
1508
root 5.60106 16.3632 41.2756 24.937 19.6693 0.903394
lowerback -11.9296 6.39611 0.681092
upperback -17.075 8.50807 -7.06245
thorax -10.7974 3.87258 -7.88227
lowerneck -0.271346 18.0594 27.0335
upperneck 30.2497 29.2869 -12.1728
head 17.095 14.9405 -3.66694
rclavicle -1.03766e-013 -1.27222e-014
rhumerus -43.3155 -7.14855 -79.7825
rradius 38.2779
rwrist 10.5266
rhand -19.1869 -14.022
rfingers 7.12502
rthumb 7.1247 -43.8821
lclavicle -1.03766e-013 -1.27222e-014
lhumerus -46.9068 -9.28022 75.1421
lradius 25.7315
lwrist -6.44517
lhand -10.6263 25.047
lfingers 7.12502
lthumb 15.3804 54.4549
rfemur -38.7356 -9.2017 29.102
rtibia 54.2808
rfoot -19.3095 -12.5877
rtoes -15.5316
lfemur -47.2462 -2.65416 -33.6376
ltibia 32.3753
lfoot -8.13613 29.1586
ltoes 12.0731
1509
root 5.61475 16.3701 41.3494 24.9262 20.5738 0.844475
lowerback -11.8835 6.47025 0.902956
upperback -17.0672 8.60502 -7.19818
thorax -10.7502 3.8953 -8.15137
lowerneck -0.125824 18.1386 27.0299
upperneck 30.131 29.4993 -12.2639
head 17.077 15.0307 -3.65516
rclavicle 1.63799e-013 -5.725e-014
rhumerus -43.9954 -7.89187 -79.4849
rradius 38.1779
rwrist 10.2279
rhand -19.1605 -13.9395
rfingers 7.12502
rthumb 7.15024 -43.7987
lclavicle 1.63799e-013 -5.725e-014
lhumerus -46.5451 -9.44805 75.2677
lradius 26.0192
lwrist -6.15938
lhand -10.8554 24.9408
lfingers 7.12502
lthumb 15.1597 54.3655
rfemur -39.5899 -10.0542 29.3234
rtibia 56.1642
rfoot -17.576 -11.767
rtoes -15.5428
lfemur -46.9023 -3.01693 -33.3889
ltibia 32.3776
lfoot -8.41148 28.7921
ltoes 11.9311
1510
root 5.62544 16.3703 41.4187 24.7932 21.367 0.803894
lowerback -11.83 6.52134 1.01333
upperback -16.9319 8.67638 -7.23694
thorax -10.5833 3.92913 -8.23457
lowerneck -0.0210728 18.2445 26.9884
upperneck 29.9545 29.7847 -12.498
head 17.0851 15.1311 -3.67075
rclavicle 5.40694e-014 -3.33958e-014
rhumerus -44.4586 -8.47728 -79.1915
rradius 37.9954
rwrist 9.95767
rhand -18.9943 -13.8524
rfingers 7.12502
rthumb 7.31068 -43.7061
lclavicle 5.40694e-014 -3.33958e-014
lhumerus -45.9151 -9.2109 75.32
lradius 26.0654
lwrist -6.03248
lhand -10.6916 25.5087
lfingers 7.12502
lthumb 15.3176 54.9215
rfemur -40.3557 -10.6571 29.3973
rtibia 58.0141
rfoot -15.5748 -11.0166
rtoes -14.9547
lfemur -46.479 -3.24091 -33.2245
ltibia 32.383
lfoot -8.52109 28.4394
ltoes 11.4272
1511
root 5.63524 16.38 41.49 24.9085 22.3424 0.819942
lowerback -11.7615 6.58349 1.16316
upperback -17.0083 8.76057 -7.43429
thorax -10.6537 3.9448 -8.55195
lowerneck 0.0286592 18.2704 26.993
upperneck 30.0259 29.8687 -12.4228
head 17.1145 15.1794 -3.61977
rclavicle 4.77083e-015 -1.74931e-014
rhumerus -45.2209 -9.27551 -78.896
rradius 37.784
rwrist 9.77398
rhand -18.8071 -13.6926
rfingers 7.12502
rthumb 7.49132 -43.5399
lclavicle 4.77083e-015 -1.74931e-014
lhumerus -46.0233 -10.1189 75.8929
lradius 27.0614
lwrist -4.90385
lhand -11.0383 24.9195
lfingers 7.12502
lthumb 14.9836 54.3574
rfemur -41.402 -11.2664 29.462
rtibia 59.7986
rfoot -13.4927 -10.3389
rtoes -15.0783
lfemur -46.2263 -3.32995 -33.223
ltibia 32.3399
lfoot -8.9243 27.7162
ltoes 11.5159
1512
root 5.63302 16.3794 41.5573 24.8774 23.2043 0.974898
lowerback -11.6623 6.5514 0.964181
upperback -16.8871 8.73209 -7.49869
thorax -10.5839 3.95679 -8.51311
lowerneck 0.0768227 18.345 26.9447
upperneck 29.9094 30.0749 -12.5904
head 17.128 15.2493 -3.62523
rclavicle -1.39149e-014 5.08889e-014
rhumerus -45.5965 -9.73964 -78.6733
rradius 37.3975
rwrist 9.6047
rhand -18.6394 -13.4991
rfingers 7.12502
rthumb 7.65318 -43.3406
lclavicle -1.39149e-014 5.08889e-014
lhumerus -45.3896 -9.84355 75.9261
lradius 27.1391
lwrist -4.80739
lhand -10.9298 25.2055
lfingers 7.12502
lthumb 15.0881 54.6356
rfemur -42.2736 -11.6383 29.2972
rtibia 61.5189
rfoot -11.1001 -9.78733
rtoes -13.6136
lfemur -45.7937 -3.54064 -33.2302
ltibia 32.2466
lfoot -8.85202 27.1415
ltoes 10.5539
1513
root 5.63731 16.3895 41.6245 25.0475 24.3233 1.03709
lowerback -11.5215 6.54561 1.06964
upperback -17.0129 8.72875 -7.69882
thorax -10.7753 3.92681 -8.83721
lowerneck 0.157607 18.3442 27.0029
upperneck 30.0438 30.119 -12.4605
head 17.171 15.2945 -3.5723
rclavicle 3.10104e-014 -4.45278e-014
rhumerus -46.4041 -10.3474 -78.483
rradius 37.0704
rwrist 9.57665
rhand -18.3547 -13.3399
rfingers 7.12502
rthumb 7.92803 -43.1713
lclavicle 3.10104e-014 -4.45278e-014
lhumerus -45.6958 -10.8789 76.6143
lradius 28.3524
lwrist -3.44876
lhand -11.3094 25.1707
lfingers 7.12502
lthumb 14.7224 54.6279
rfemur -43.3351 -12.1966 29.3058
rtibia 63.0771
rfoot -8.75609 -9.10337
rtoes -12.755
lfemur -45.4973 -3.8235 -33.1505
ltibia 32.0542
lfoot -8.96046 26.3846
ltoes 10.1622
